<svg xmlns="http://www.w3.org/2000/svg" viewBox="0 0 25 25" id="incomingcall"><path fill="#34a853" d="M21.16,17.47c0,.74-.61,1.58-2.12,3a2.39,2.39,0,0,1-1.73.66h-.07c-3.2-.07-8-5-8.17-5.24S3.91,11,3.84,7.76A2.42,2.42,0,0,1,4.5,6C6,4.45,6.8,3.85,7.53,3.84A2.22,2.22,0,0,1,9,4.6a11.79,11.79,0,0,1,1.92,2.55,1.51,1.51,0,0,1,0,1.47l-.59,1.11a6.11,6.11,0,0,0,1.92,3,6.12,6.12,0,0,0,3,1.92l1.11-.59a1.48,1.48,0,0,1,1.47,0A11.79,11.79,0,0,1,20.4,16,2,2,0,0,1,21.16,17.47ZM14,10.69h0a.45.45,0,0,0,.16.2l.05,0a.46.46,0,0,0,.25.08h3a.5.5,0,0,0,0-1H15.71l3.14-3.15a.49.49,0,1,0-.7-.7L15,9.29V7.5a.5.5,0,0,0-1,0v3a.41.41,0,0,0,0,.19Z" data-name="Incoming Calls" class="color2b3344 svgShape"></path></svg>