<svg xmlns="http://www.w3.org/2000/svg" enable-background="new 0 0 16 16" viewBox="0 0 16 16" id="archive"><g display="none"><line x1="6.5" x2="9.5" y1="3.5" y2="3.5" fill="none" stroke="#000" stroke-linecap="round" stroke-linejoin="round" stroke-miterlimit="10"></line><line x1="5.5" x2="10.5" y1="6" y2="6" fill="none" stroke="#000" stroke-linecap="round" stroke-linejoin="round" stroke-miterlimit="10"></line><line x1="4.5" x2="11.5" y1="8.5" y2="8.5" fill="none" stroke="#000" stroke-linecap="round" stroke-linejoin="round" stroke-miterlimit="10"></line><path fill="none" stroke="#000" stroke-linejoin="round" stroke-miterlimit="10" d="M14.5,14.5h-13c-0.6,0-1-0.4-1-1v-2c0-0.6,0.4-1,1-1h4l0,1h5l0-1h4c0.6,0,1,0.4,1,1v2
		C15.5,14.1,15.1,14.5,14.5,14.5z"></path><path fill="none" stroke="#000" stroke-linecap="round" stroke-linejoin="round" stroke-miterlimit="10" d="M1.5,10.5l1.8-8.2c0.1-0.5,0.5-0.8,1-0.8h7.4c0.5,0,0.9,0.3,1,0.8l1.4,6.2"></path></g><g display="none"><path d="M9.5 4C9.8 4 10 3.8 10 3.5S9.8 3 9.5 3h-3C6.2 3 6 3.2 6 3.5S6.2 4 6.5 4H9.5zM5 6c0 .3.2.5.5.5h5C10.8 6.5 11 6.3 11 6s-.2-.5-.5-.5h-5C5.2 5.5 5 5.7 5 6zM4 8.5C4 8.8 4.2 9 4.5 9h7C11.8 9 12 8.8 12 8.5S11.8 8 11.5 8h-7C4.2 8 4 8.2 4 8.5z"></path><path d="M14.5,10h-4c-0.1,0-0.3,0.1-0.4,0.1S10,10.4,10,10.5V11H6v-0.5c0-0.1-0.1-0.3-0.1-0.4S5.6,10,5.5,10H2.1l1.7-7.6
			C3.9,2.2,4.1,2,4.3,2h7.4c0.2,0,0.4,0.2,0.5,0.4l1.4,6.2c0.1,0.3,0.3,0.4,0.6,0.4c0.3-0.1,0.4-0.3,0.4-0.6l-1.4-6.2
			C13,1.5,12.4,1,11.7,1H4.3C3.6,1,3,1.5,2.8,2.2l-1.8,7.9C0.5,10.2,0,10.8,0,11.5v2C0,14.3,0.7,15,1.5,15h13c0.8,0,1.5-0.7,1.5-1.5
			v-2C16,10.7,15.3,10,14.5,10z M15,13.5c0,0.3-0.2,0.5-0.5,0.5h-13C1.2,14,1,13.8,1,13.5v-2C1,11.2,1.2,11,1.5,11H5l0,0.5
			c0,0.1,0.1,0.3,0.1,0.4S5.4,12,5.5,12h5c0.1,0,0.3-0.1,0.4-0.1s0.1-0.2,0.1-0.4l0-0.5h3.5c0.3,0,0.5,0.2,0.5,0.5V13.5z"></path></g><g display="none"><path fill="#e5a505" d="M2.8,11.5h12l-2.1-9.2c-0.1-0.5-0.5-0.8-1-0.8H6.6c-0.9,0-1.7,0.7-2,1.6L2.8,11.5z"></path><path fill="#ffc217" d="M14.5,14.5h-13c-0.6,0-1-0.4-1-1v-2c0-0.6,0.4-1,1-1h4l0,1h5l0-1h4c0.6,0,1,0.4,1,1v2
			C15.5,14.1,15.1,14.5,14.5,14.5z"></path><path fill="#c7ced6" d="M9.5 4C9.8 4 10 3.8 10 3.5S9.8 3 9.5 3h-3C6.2 3 6 3.2 6 3.5S6.2 4 6.5 4H9.5zM5 6c0 .3.2.5.5.5h5C10.8 6.5 11 6.3 11 6s-.2-.5-.5-.5h-5C5.2 5.5 5 5.7 5 6zM4 8.5C4 8.8 4.2 9 4.5 9h7C11.8 9 12 8.8 12 8.5S11.8 8 11.5 8h-7C4.2 8 4 8.2 4 8.5z"></path><path fill="#3e3643" d="M14.5,10h-4c-0.1,0-0.3,0.1-0.4,0.1S10,10.4,10,10.5V11H6v-0.5c0-0.1-0.1-0.3-0.1-0.4S5.6,10,5.5,10H2.1
				l1.7-7.6C3.9,2.2,4.1,2,4.3,2h7.4c0.2,0,0.4,0.2,0.5,0.4l1.4,6.2c0.1,0.3,0.3,0.4,0.6,0.4c0.3-0.1,0.4-0.3,0.4-0.6l-1.4-6.2
				C13,1.5,12.4,1,11.7,1H4.3C3.6,1,3,1.5,2.8,2.2l-1.8,7.9C0.5,10.2,0,10.8,0,11.5v2C0,14.3,0.7,15,1.5,15h13
				c0.8,0,1.5-0.7,1.5-1.5v-2C16,10.7,15.3,10,14.5,10z M15,13.5c0,0.3-0.2,0.5-0.5,0.5h-13C1.2,14,1,13.8,1,13.5v-2
				C1,11.2,1.2,11,1.5,11H5l0,0.5c0,0.1,0.1,0.3,0.1,0.4S5.4,12,5.5,12h5c0.1,0,0.3-0.1,0.4-0.1s0.1-0.2,0.1-0.4l0-0.5h3.5
				c0.3,0,0.5,0.2,0.5,0.5V13.5z"></path></g><g display="none"><path fill="#4bb9ec" d="M15,10.4l-1.9-8.2C13,1.5,12.4,1,11.7,1H8v11.5h3.5V11h3.1c0.2,0,0.3-0.1,0.4-0.2S15.1,10.5,15,10.4z"></path><path fill="#7cc8f0" d="M8,12.5V1H4.3C3.6,1,3,1.5,2.8,2.2L1,10.4c0,0.1,0,0.3,0.1,0.4C1.2,10.9,1.3,11,1.5,11h3v1.5H8z"></path><path fill="#a2d8f4" d="M14.5,10h-3c-0.1,0-0.3,0.1-0.4,0.1S11,10.4,11,10.5V11c0,0.6-0.4,1-1,1H8v3h6.5c0.8,0,1.5-0.7,1.5-1.5v-2
			C16,10.7,15.3,10,14.5,10z"></path><path fill="#deecf1" d="M8,12H6c-0.6,0-1-0.4-1-1v-0.5c0-0.1-0.1-0.3-0.1-0.4S4.6,10,4.5,10h-3C0.7,10,0,10.7,0,11.5v2
			C0,14.3,0.7,15,1.5,15H8V12z"></path><path fill="#cfd3d4" d="M9.5 3H8v1h1.5C9.8 4 10 3.8 10 3.5S9.8 3 9.5 3zM10.5 5.5H8v1h2.5C10.8 6.5 11 6.3 11 6S10.8 5.5 10.5 5.5zM11.5 8H8v1h3.5C11.8 9 12 8.8 12 8.5S11.8 8 11.5 8z"></path><path fill="#f0f0f0" d="M8 3H6.5C6.2 3 6 3.2 6 3.5S6.2 4 6.5 4H8V3zM8 5.5H5.5C5.2 5.5 5 5.7 5 6s.2.5.5.5H8V5.5zM8 8H4.5C4.2 8 4 8.2 4 8.5S4.2 9 4.5 9H8V8z"></path></g><g display="none"><path fill="#3e5959" d="M9.5 4h-3C6.2 4 6 3.8 6 3.5S6.2 3 6.5 3h3C9.8 3 10 3.2 10 3.5S9.8 4 9.5 4zM10.5 6.5h-5C5.2 6.5 5 6.3 5 6s.2-.5.5-.5h5C10.8 5.5 11 5.7 11 6S10.8 6.5 10.5 6.5zM11.5 9h-7C4.2 9 4 8.8 4 8.5S4.2 8 4.5 8h7C11.8 8 12 8.2 12 8.5S11.8 9 11.5 9z"></path><path fill="#1689fc" d="M14.5,10h-4c-0.1,0-0.3,0.1-0.4,0.1S10,10.4,10,10.5V11H6v-0.5c0-0.1-0.1-0.3-0.1-0.4S5.6,10,5.5,10H2.1
			l1.7-7.6C3.9,2.2,4.1,2,4.3,2h7.4c0.2,0,0.4,0.2,0.5,0.4l1.4,6.2c0.1,0.3,0.3,0.4,0.6,0.4c0.3-0.1,0.4-0.3,0.4-0.6l-1.4-6.2
			C13,1.5,12.4,1,11.7,1H4.3C3.6,1,3,1.5,2.8,2.2l-1.8,7.9C0.5,10.2,0,10.8,0,11.5v2C0,14.3,0.7,15,1.5,15h13c0.8,0,1.5-0.7,1.5-1.5
			v-2C16,10.7,15.3,10,14.5,10z M15,13.5c0,0.3-0.2,0.5-0.5,0.5h-13C1.2,14,1,13.8,1,13.5v-2C1,11.2,1.2,11,1.5,11H5l0,0.5
			c0,0.1,0.1,0.3,0.1,0.4S5.4,12,5.5,12h5c0.1,0,0.3-0.1,0.4-0.1s0.1-0.2,0.1-0.4l0-0.5h3.5c0.3,0,0.5,0.2,0.5,0.5V13.5z"></path></g><g><path fill="#00ecce" d="M14.5,14.5h-13c-0.6,0-1-0.4-1-1v-2c0-0.6,0.4-1,1-1h4l0,1h5l0-1h4c0.6,0,1,0.4,1,1v2
			C15.5,14.1,15.1,14.5,14.5,14.5z"></path><path fill="#01a28e" d="M9.5 4C9.8 4 10 3.8 10 3.5S9.8 3 9.5 3h-3C6.2 3 6 3.2 6 3.5S6.2 4 6.5 4H9.5zM5 6c0 .3.2.5.5.5h5C10.8 6.5 11 6.3 11 6s-.2-.5-.5-.5h-5C5.2 5.5 5 5.7 5 6zM4 8.5C4 8.8 4.2 9 4.5 9h7C11.8 9 12 8.8 12 8.5S11.8 8 11.5 8h-7C4.2 8 4 8.2 4 8.5z"></path><path fill="#01a28e" d="M14.5,10h-4c-0.1,0-0.3,0.1-0.4,0.1S10,10.4,10,10.5V11H6v-0.5c0-0.1-0.1-0.3-0.1-0.4S5.6,10,5.5,10H2.1
				l1.7-7.6C3.9,2.2,4.1,2,4.3,2h7.4c0.2,0,0.4,0.2,0.5,0.4l1.4,6.2c0.1,0.3,0.3,0.4,0.6,0.4c0.3-0.1,0.4-0.3,0.4-0.6l-1.4-6.2
				C13,1.5,12.4,1,11.7,1H4.3C3.6,1,3,1.5,2.8,2.2l-1.8,7.9C0.5,10.2,0,10.8,0,11.5v2C0,14.3,0.7,15,1.5,15h13
				c0.8,0,1.5-0.7,1.5-1.5v-2C16,10.7,15.3,10,14.5,10z M15,13.5c0,0.3-0.2,0.5-0.5,0.5h-13C1.2,14,1,13.8,1,13.5v-2
				C1,11.2,1.2,11,1.5,11H5l0,0.5c0,0.1,0.1,0.3,0.1,0.4S5.4,12,5.5,12h5c0.1,0,0.3-0.1,0.4-0.1s0.1-0.2,0.1-0.4l0-0.5h3.5
				c0.3,0,0.5,0.2,0.5,0.5V13.5z"></path></g></svg>