<svg xmlns="http://www.w3.org/2000/svg" viewBox="0 0 64 64" id="incoming-calls"><path fill="#222" d="M35.782 19.383c0-.015 0-.029.005-.044 0-.049.007-.1.012-.147s.009-.105.018-.158l.016-.087c.01-.045.026-.088.039-.131s.03-.1.05-.156c.011-.027.02-.055.032-.082.018-.043.043-.083.065-.124s.049-.095.079-.141c.015-.024.029-.049.046-.072.028-.042.063-.079.095-.118s.042-.062.068-.091l7-7.644a2 2 0 1 1 2.951 2.7l-3.93 4.294h14.5a2 2 0 0 1 0 4h-14.5l3.93 4.3a2 2 0 0 1-2.951 2.7l-7-7.646c-.026-.028-.044-.061-.068-.09s-.067-.077-.095-.118c-.017-.024-.031-.048-.046-.072-.03-.046-.054-.094-.079-.141s-.047-.082-.065-.124c-.012-.027-.021-.055-.032-.083-.02-.051-.035-.1-.05-.155s-.029-.086-.039-.131l-.016-.088c-.009-.052-.013-.105-.018-.158s-.011-.1-.012-.147c-.001-.018-.005-.029-.005-.046ZM59.03 51.769l-5.456 5.455a11.7 11.7 0 0 1-8.328 3.451h-.007a11.68 11.68 0 0 1-8.315-3.453L6.776 27.074a11.4 11.4 0 0 1-2.523-3.734l-.006-.015v-.006a11.726 11.726 0 0 1 2.529-12.893l5.45-5.45a6.633 6.633 0 0 1 9.335 0l6.939 6.95a6.588 6.588 0 0 1 0 9.332l-2.476 2.476a2.073 2.073 0 0 0 0 2.931l11.31 11.311a2.122 2.122 0 0 0 2.931 0l2.481-2.48a6.588 6.588 0 0 1 9.332 0l6.946 6.936a6.229 6.229 0 0 1 .914 1.153 5.947 5.947 0 0 1 .52 1.02 6.59 6.59 0 0 1-1.428 7.164ZM7.835 21.477 34.754 48.4a7.709 7.709 0 0 0 5.487 2.279h.005a7.733 7.733 0 0 0 5.5-2.279l5.45-5.45a2.549 2.549 0 0 0 .73-1.95l-2.68-2.676a2.648 2.648 0 0 0-3.668 0L43.094 40.8a6.073 6.073 0 0 1-8.589 0L23.2 29.494a6.073 6.073 0 0 1 0-8.589l2.48-2.479a2.59 2.59 0 0 0 0-3.668L18.734 7.8a2.622 2.622 0 0 0-3.684.006L9.6 13.254a7.735 7.735 0 0 0-1.765 8.223Z" data-name="Received Call"></path></svg>