<svg xmlns="http://www.w3.org/2000/svg" viewBox="0 0 512 512" id="CallMissed"><path d="m470.756 399.28-48.254-65.518c-1.286-1.746-2.725-3.601-4.813-4.189-2.728-.765-5.49.887-7.842 2.467l-39.876 26.769c-7.962 5.345-17.756 10.908-26.579 7.152-5.112-2.174-8.495-7.017-11.598-11.625l-52.005-77.181 139.303-90.227c3.832-2.481 4.931-7.604 2.451-11.436-2.491-3.812-7.614-4.901-11.426-2.44l-139.24 90.187-44.858-71.112c-2.964-4.699-6.032-9.747-5.961-15.302.124-9.588 9.163-16.308 17.264-21.437l40.578-25.694c2.394-1.516 5.02-3.376 5.419-6.182.305-2.147-.812-4.211-1.892-6.092l-40.492-70.579c-4.612-8.039-9.784-16.593-18.301-20.251-9.932-4.267-21.311-.616-31.459 3.106-16.895 6.198-34.373 12.982-46.615 26.173-20.475 22.062-21.731 56.755-21.627 85.185.121 33.295 9.162 68.164 20.336 99.289 10.07 28.046 23.613 54.744 39.722 79.819L33.87 416.752c-3.832 2.481-4.931 7.604-2.451 11.436a8.265 8.265 0 0 0 6.948 3.772 8.303 8.303 0 0 0 4.477-1.331l149.191-96.632c17.576 27.951 38.334 53.881 62.265 76.617 23.976 22.779 52.236 45.112 82.655 58.652 25.974 11.56 58.226 24.403 86.673 14.564 17.007-5.883 30.264-19.14 42.749-32.101 7.5-7.785 15.428-16.725 15.53-27.535.087-9.269-5.655-17.451-11.151-24.914z" fill="#d85b53" class="color000000 svgShape"></path></svg>