<svg xmlns="http://www.w3.org/2000/svg" viewBox="0 0 64 64" id="outgoing-call"><g fill="#222" data-name="Outgoing Call"><path d="M45.11 60.82a11.71 11.71 0 0 1-8.33-3.45L6.63 27.22a11.79 11.79 0 0 1 0-16.65l5.46-5.45a6.58 6.58 0 0 1 9.33 0l6.94 6.94a6.59 6.59 0 0 1 0 9.34l-2.47 2.47a2.07 2.07 0 0 0 0 2.93L37.2 38.11a2.13 2.13 0 0 0 2.93 0l2.47-2.47a6.6 6.6 0 0 1 9.34 0l6.94 6.94a6.6 6.6 0 0 1 0 9.34l-5.45 5.45a11.7 11.7 0 0 1-8.32 3.45zM9.46 13.4a7.78 7.78 0 0 0 0 11l30.15 30.14a7.78 7.78 0 0 0 11 0l5.45-5.45a2.6 2.6 0 0 0 0-3.68l-6.94-6.95a2.61 2.61 0 0 0-3.68 0L43 40.94a6.07 6.07 0 0 1-8.59 0L23.06 29.63a6.08 6.08 0 0 1 0-8.59l2.48-2.47a2.61 2.61 0 0 0 0-3.68L18.59 8a2.65 2.65 0 0 0-3.68 0zm47.37 7.98a2 2 0 0 1-1.48-.65l-7-7.64a2 2 0 1 1 2.95-2.7l7 7.64a2 2 0 0 1-1.47 3.35z"></path><path d="M49.83 29a2 2 0 0 1-1.35-.53 2 2 0 0 1-.13-2.82l7-7.65a2 2 0 0 1 2.95 2.7l-7 7.65a2 2 0 0 1-1.47.65Z"></path><path d="M56.83 21.38h-19a2 2 0 0 1 0-4h19a2 2 0 0 1 0 4Z"></path></g></svg>