<svg xmlns="http://www.w3.org/2000/svg" viewBox="0 0 24 24" id="Recording"><path d="M16.29373,18.59033a7.946,7.946,0,0,1-3.05664,1.14441v1.24915a1,1,0,0,1-2,0V19.78253a7.95138,7.95138,0,0,1-3.53125-1.19317,1.0002,1.0002,0,1,1,1.07422-1.6875,6.111,6.111,0,0,0,6.43945.001,1.0002,1.0002,0,1,1,1.07422,1.6875ZM8.3981,10.05609h1.6a1,1,0,0,1,0,2H8.44052a.39645.39645,0,0,0-.40082.43164,4.05374,4.05374,0,0,0,3.95837,3.59839,4.07538,4.07538,0,0,0,4-4.14v-5.8a4.06657,4.06657,0,0,0-4-4.13A4.05653,4.05653,0,0,0,8.029,5.62073a.39672.39672,0,0,0,.39508.4317l1.584.02368a.99024.99024,0,0,1,.99,1.01,1.00077,1.00077,0,0,1-1,.99H9.98813l-1.584-.02392a.4.4,0,0,0-.406.4V9.65607A.4.4,0,0,0,8.3981,10.05609Z" fill="#595bd4" class="color000000 svgShape"></path></svg>