<svg xmlns="http://www.w3.org/2000/svg" width="24" height="24" fill="none" viewBox="0 0 24 24" id="video-call"><path fill="url(#paint0_linear_1855_4241)" d="M4 1C2.34315 1 1 2.34315 1 4V15C1 16.6569 2.34315 18 4 18H5V21.5858C5 22.3668 5.63316 23 6.41421 23C6.78929 23 7.149 22.851 7.41421 22.5858L12 18H16C17.6569 18 19 16.6569 19 15V4C19 2.34315 17.6569 1 16 1H4Z"></path><path fill="#850026" fill-rule="evenodd" d="M19 13.618L19.0001 5.38197L21.5529 4.10557C21.8628 3.95058 22.231 3.96714 22.5258 4.14935C22.8206 4.33156 23.0001 4.65342 23.0001 5V14C23.0001 14.3466 22.8206 14.6684 22.5258 14.8507C22.231 15.0329 21.8628 15.0494 21.5529 14.8944L19 13.618ZM10 12.5C11.6569 12.5 13 11.1569 13 9.5C13 7.84315 11.6569 6.5 10 6.5C8.34315 6.5 7 7.84315 7 9.5C7 11.1569 8.34315 12.5 10 12.5Z" clip-rule="evenodd"></path><defs><linearGradient id="paint0_linear_1855_4241" x1=".182" x2="23.707" y1="0" y2="19.247" gradientUnits="userSpaceOnUse"><stop offset=".083" stop-color="#FF6A6A"></stop><stop offset="1" stop-color="#F72257"></stop></linearGradient></defs></svg>