<svg xmlns="http://www.w3.org/2000/svg" enable-background="new 0 0 24 24" viewBox="0 0 24 24" id="Voice"><g fill="#595bd4" class="color000000 svgShape"><path d="M17.2109,2.3242c-3.458-0.4316-6.9639-0.4316-10.4219,0c-2.3369,0.292-4.1729,2.1289-4.4644,4.4648
		c-0.4326,3.458-0.4326,6.9639,0,10.4219c0.2915,2.3359,2.1274,4.1729,4.4644,4.4648C8.5181,21.8916,10.2588,22,12,22
		s3.4819-0.1084,5.2109-0.3242c2.3369-0.292,4.1729-2.1289,4.4644-4.4648c0.4326-3.458,0.4326-6.9639,0-10.4219
		C21.3838,4.4531,19.5479,2.6162,17.2109,2.3242z M19.6909,16.9629c-0.1782,1.4277-1.3003,2.5498-2.728,2.7285
		c-3.293,0.4121-6.6328,0.4102-9.9258,0c-1.4277-0.1787-2.5498-1.3008-2.728-2.7285c-0.4116-3.293-0.4116-6.6328,0-9.9258
		c0.1782-1.4277,1.3003-2.5498,2.728-2.7285C8.6836,4.1035,10.3418,4,12,4s3.3164,0.1035,4.9629,0.3086
		c1.4277,0.1787,2.5498,1.3008,2.728,2.7285C20.1025,10.3301,20.1025,13.6699,19.6909,16.9629z" fill="#595bd4" class="color000000 svgShape"></path><path d="M12 7c-.5522 0-1 .4473-1 1v8c0 .5527.4478 1 1 1s1-.4473 1-1V8C13 7.4473 12.5522 7 12 7zM18 10c-.5522 0-1 .4473-1 1v2c0 .5527.4478 1 1 1s1-.4473 1-1v-2C19 10.4473 18.5522 10 18 10zM6 10c-.5522 0-1 .4473-1 1v2c0 .5527.4478 1 1 1s1-.4473 1-1v-2C7 10.4473 6.5522 10 6 10zM15 9c-.5522 0-1 .4473-1 1v4c0 .5527.4478 1 1 1s1-.4473 1-1v-4C16 9.4473 15.5522 9 15 9zM9 9c-.5522 0-1 .4473-1 1v4c0 .5527.4478 1 1 1s1-.4473 1-1v-4C10 9.4473 9.5522 9 9 9z" fill="#595bd4" class="color000000 svgShape"></path></g></svg>